<?xml version="1.0" encoding="UTF-8" standalone="no"?>
<!-- Created with Inkscape (http://www.inkscape.org/) -->

<svg
   width="210mm"
   height="297mm"
   viewBox="0 0 210 297"
   version="1.1"
   id="svg444"
   inkscape:version="1.3 (0e150ed6c4, 2023-07-21)"
   sodipodi:docname="drawjnjwing.svg"
   xmlns:inkscape="http://www.inkscape.org/namespaces/inkscape"
   xmlns:sodipodi="http://sodipodi.sourceforge.net/DTD/sodipodi-0.dtd"
   xmlns:xlink="http://www.w3.org/1999/xlink"
   xmlns="http://www.w3.org/2000/svg"
   xmlns:svg="http://www.w3.org/2000/svg">
  <sodipodi:namedview
     id="namedview446"
     pagecolor="#ffffff"
     bordercolor="#000000"
     borderopacity="0.25"
     inkscape:showpageshadow="2"
     inkscape:pageopacity="0.0"
     inkscape:pagecheckerboard="0"
     inkscape:deskcolor="#d1d1d1"
     inkscape:document-units="mm"
     showgrid="false"
     inkscape:zoom="0.27705528"
     inkscape:cx="171.44593"
     inkscape:cy="519.75188"
     inkscape:window-width="1600"
     inkscape:window-height="805"
     inkscape:window-x="0"
     inkscape:window-y="0"
     inkscape:window-maximized="1"
     inkscape:current-layer="layer1" />
  <defs
     id="defs441">
    <linearGradient
       inkscape:collect="always"
       xlink:href="#linearGradient7701"
       id="linearGradient7340"
       x1="-72.760826"
       y1="-109.19638"
       x2="-171.68338"
       y2="45.454502"
       gradientUnits="userSpaceOnUse"
       gradientTransform="translate(18.452662,-167.83136)" />
    <linearGradient
       inkscape:collect="always"
       id="linearGradient7701">
      <stop
         style="stop-color:#0052ad;stop-opacity:1;"
         offset="0"
         id="stop7693" />
      <stop
         style="stop-color:#808a91;stop-opacity:1;"
         offset="0.25632679"
         id="stop7695" />
      <stop
         style="stop-color:#8b9197;stop-opacity:1;"
         offset="0.45184404"
         id="stop7697" />
      <stop
         style="stop-color:#070032;stop-opacity:1;"
         offset="0.97358489"
         id="stop7699" />
    </linearGradient>
    <linearGradient
       inkscape:collect="always"
       xlink:href="#linearGradient7200"
       id="linearGradient7202"
       x1="-162.82738"
       y1="53.802139"
       x2="25.584362"
       y2="-104.36354"
       gradientUnits="userSpaceOnUse"
       gradientTransform="translate(-25.61093,-180.62578)" />
    <linearGradient
       inkscape:collect="always"
       id="linearGradient7200">
      <stop
         style="stop-color:#3493dc;stop-opacity:1;"
         offset="0"
         id="stop7196" />
      <stop
         style="stop-color:#8b9197;stop-opacity:1;"
         offset="0.39466596"
         id="stop7328" />
      <stop
         style="stop-color:#070032;stop-opacity:1;"
         offset="0.97358489"
         id="stop7198" />
    </linearGradient>
    <linearGradient
       inkscape:collect="always"
       xlink:href="#linearGradient7348"
       id="linearGradient7589"
       x1="-51.391109"
       y1="-111.8642"
       x2="-190.45218"
       y2="-44.5686"
       gradientUnits="userSpaceOnUse"
       gradientTransform="translate(18.452662,-167.83136)" />
    <linearGradient
       inkscape:collect="always"
       id="linearGradient7348">
      <stop
         style="stop-color:#008cf7;stop-opacity:1;"
         offset="0"
         id="stop7342" />
      <stop
         style="stop-color:#808a91;stop-opacity:1;"
         offset="0.25632679"
         id="stop7350" />
      <stop
         style="stop-color:#8b9197;stop-opacity:1;"
         offset="0.45184404"
         id="stop7344" />
      <stop
         style="stop-color:#070032;stop-opacity:1;"
         offset="0.97358489"
         id="stop7346" />
    </linearGradient>
    <radialGradient
       inkscape:collect="always"
       xlink:href="#linearGradient7550"
       id="radialGradient7554"
       cx="-126.10165"
       cy="-54.698963"
       fx="-126.10165"
       fy="-54.698963"
       r="52.274105"
       gradientTransform="matrix(1,0,0,0.94553074,-12.47626,-171.93544)"
       gradientUnits="userSpaceOnUse" />
    <linearGradient
       inkscape:collect="always"
       id="linearGradient7550">
      <stop
         style="stop-color:#ffffff;stop-opacity:0.63440859;"
         offset="0"
         id="stop7546" />
      <stop
         style="stop-color:#ffffff;stop-opacity:0;"
         offset="1"
         id="stop7548" />
    </linearGradient>
  </defs>
  <g
     inkscape:label="Layer 1"
     inkscape:groupmode="layer"
     id="layer1">
    <g
       id="g1129"
       transform="matrix(0.92928654,0,0,0.92928654,179.7629,358.4596)">
      <path
         id="path7330"
         style="fill:url(#linearGradient7340);fill-opacity:1;stroke-width:0.786664"
         inkscape:transform-center-x="-2e-06"
         inkscape:transform-center-y="-26.623623"
         d="m -84.094048,-337.68714 c 1.29016,3.0519 2.602766,6.09408 3.923791,9.13226 l 0.0036,-0.0326 c 14.174664,32.60282 30.062367,64.44441 46.447293,96.06494 0.521331,1.00563 1.047634,2.00909 1.56993,3.01429 9.433606,18.16395 19.013228,36.26308 28.5197051,54.39461 -2.388279,-1.07728 -4.829999,-2.16735 -7.3287511,-3.23701 -2.498608,-1.0696 -5.054495,-2.11904 -7.67085,-3.11454 -1.5e-4,-6e-5 -3.66e-4,6e-5 -5.16e-4,0 -2.616512,-0.99555 -5.293609,-1.93711 -8.035169,-2.79208 -2.741559,-0.85496 -5.547295,-1.62327 -8.421191,-2.27118 1.562883,0.884 3.071243,1.76221 4.559928,2.6386 0.903842,0.52942 1.798536,1.05936 2.679423,1.58699 1.28e-4,7e-5 3.89e-4,-8e-5 5.17e-4,0 10.424127,2.65456 19.9449611,6.79083 28.73881407,10.75748 C -27.219401,-225.16266 -56.044272,-278.46411 -79.571844,-334.11888 Z m -2.5337,79.97238 c 1.3717,1.10875 2.77342,2.21786 4.21318,3.32693 0.13832,0.0476 0.27541,0.10003 0.41393,0.14676 -1.58419,-1.15912 -3.11968,-2.31646 -4.62711,-3.47369 z m 1.85157,42.27856 c -0.62242,0.0279 -1.23243,0.0849 -1.82986,0.17001 -0.89615,0.12763 -1.76414,0.31827 -2.60398,0.56793 -2.78742,0.82862 -5.25509,2.32284 -7.42022,4.30413 -0.2268,0.20754 -0.45959,0.40532 -0.67954,0.62373 -0.20363,0.20221 -0.39497,0.42335 -0.59273,0.63459 -1.03094,1.10121 -1.99177,2.30888 -2.862872,3.63285 -0.3461,0.52602 -0.67964,1.06825 -1.00046,1.62523 -0.32082,0.55698 -0.62898,1.12854 -0.92449,1.7141 -0.59111,1.17124 -1.13137,2.39726 -1.62109,3.66851 -0.48967,1.27111 -0.92862,2.5873 -1.31672,3.9393 -0.77619,2.70399 -1.34905,5.55058 -1.71772,8.46356 -0.0922,0.72825 -0.1716,1.46091 -0.23823,2.19625 -0.0666,0.73534 -0.12016,1.47326 -0.16123,2.2133 -10e-6,1.8e-4 1e-5,3.5e-4 0,5.2e-4 -0.002,0.0282 -0.002,0.0565 -0.003,0.0847 -0.0787,1.45199 -0.10978,2.91051 -0.0899,4.36666 0.0203,1.4846 0.0916,2.96692 0.21446,4.43694 0.12286,1.47001 0.29729,2.92774 0.52297,4.36407 0.33851,2.1545 0.7928,4.26041 1.36322,6.28541 -0.99861,0.16107 -2.00487,0.33779 -3.01687,0.52761 -0.2777,0.0521 -0.55907,0.11274 -0.83767,0.16692 -0.73296,0.14253 -1.46582,0.28521 -2.20452,0.44183 -0.35691,0.0757 -0.71728,0.1604 -1.07539,0.23926 -0.67146,0.14786 -1.34219,0.29394 -2.01745,0.45269 -0.38149,0.0897 -0.76569,0.18807 -1.14825,0.28112 -0.64511,0.15691 -1.28959,0.31181 -1.93735,0.47801 -0.45518,0.11678 -0.91263,0.24258 -1.3689,0.3638 -0.58176,0.15455 -1.16294,0.30615 -1.74615,0.46767 -0.4531,0.12548 -0.90738,0.25906 -1.36116,0.38861 -0.59689,0.1704 -1.19336,0.33854 -1.7911,0.51573 -0.43745,0.12966 -0.87539,0.26577 -1.3131,0.39894 -0.60785,0.18493 -1.21563,0.36875 -1.82366,0.56017 -0.44814,0.14109 -0.89607,0.28806 -1.34411,0.43253 -0.59848,0.19298 -1.19724,0.38465 -1.79524,0.58343 -0.45233,0.15037 -0.90361,0.30637 -1.35547,0.45992 -0.59379,0.20177 -1.18762,0.40226 -1.78025,0.60926 -0.46383,0.16203 -0.92615,0.32895 -1.38906,0.49403 -0.57068,0.2035 -1.14151,0.40651 -1.71049,0.61443 -0.49214,0.17986 -0.98216,0.36375 -1.47278,0.54674 -0.53443,0.19931 -1.06908,0.39816 -1.60145,0.601 -0.51648,0.19679 -1.03034,0.39695 -1.54461,0.59686 -0.50499,0.19629 -1.01047,0.39207 -1.51309,0.59118 -0.53593,0.21233 -1.06902,0.42752 -1.60197,0.64285 -0.47522,0.192 -0.95054,0.38405 -1.42317,0.57826 -0.53623,0.22037 -1.06886,0.44309 -1.60145,0.66611 -0.40471,0.16945 -0.80936,0.33867 -1.21181,0.50953 -1.75407,0.74478 -3.48448,1.50306 -5.18883,2.26963 -0.21329,0.0959 -0.42734,0.19165 -0.63976,0.28784 -1.07608,0.48736 -2.11797,0.98235 -3.16983,1.47536 -0.91013,0.42652 -1.82816,0.85125 -2.71818,1.28054 -0.96745,0.46672 -1.90237,0.93523 -2.84375,1.40353 -0.84928,0.42243 -1.70694,0.84422 -2.53318,1.26659 -0.92635,0.47363 -1.81641,0.94512 -2.71146,1.41697 -0.78084,0.41158 -1.56965,0.82354 -2.32493,1.23248 -0.9036,0.48935 -1.76693,0.97308 -2.63136,1.45676 -0.68183,0.38146 -1.37135,0.76422 -2.02727,1.14102 -0.85358,0.49043 -1.66312,0.97102 -2.47013,1.45159 -0.60262,0.35881 -1.2123,0.71902 -1.78749,1.07125 -0.78692,0.48199 -1.52653,0.95142 -2.25929,1.41904 -0.51789,0.33046 -1.0412,0.66216 -1.53066,0.98443 -1.01341,0.66736 -1.99485,1.32559 -2.87889,1.95234 -0.009,0.006 -0.0167,0.012 -0.0253,0.0181 -0.50197,0.35616 -0.98269,0.70482 -1.44023,1.04594 -0.013,0.01 -0.0248,0.0193 -0.0377,0.0289 -0.45628,0.3407 -0.89127,0.67413 -1.30121,0.99839 l -0.55501,0.7519 4.39353,3.13004 0.71572,-0.70332 -0.98392,1.15549 c 12.4368,-10.38143 52.20734,-30.97318 84.45789,-36.17506 -6.08445,-21.59984 1.04412,-52.40027 20.961517,-53.29183 4.107649,0.98872 7.517109,2.41694 10.363192,4.19561 -3.44e-4,-3.4e-4 -6.9e-4,-7e-4 -0.001,-0.001 -0.439086,-0.43563 -0.898061,-0.85891 -1.37821,-1.26917 -0.479049,-0.40932 -0.979408,-0.80574 -1.5012,-1.18856 -0.01304,-0.01 -0.02725,-0.0184 -0.04031,-0.0279 -0.508722,-0.3718 -1.037566,-0.7309 -1.588534,-1.07642 -0.04678,-0.0293 -0.0976,-0.0562 -0.144694,-0.0853 -0.521044,-0.32246 -1.057027,-0.63559 -1.616955,-0.93379 -0.115806,-0.0615 -0.241649,-0.11678 -0.359151,-0.17725 -0.505939,-0.26099 -1.018418,-0.51772 -1.556494,-0.75861 -0.198329,-0.0886 -0.412695,-0.16688 -0.615467,-0.2527 -0.474111,-0.20108 -0.946441,-0.4036 -1.445389,-0.58911 -0.395192,-0.14667 -0.815742,-0.27722 -1.226799,-0.41393 -0.335192,-0.11165 -0.657052,-0.23206 -1.003042,-0.33693 -0.77558,-0.2348 -1.57723,-0.45319 -2.40812,-0.65319 z m 83.3876741,51.42683 c 0.97473997,0.79407 1.93222197,1.59667 2.881995,2.40399 0.245295,0.20848 0.490069,0.41791 0.733805,0.62735 0.943045,0.81047 1.879055,1.62542 2.800346,2.45153 2.70384,5.20516 5.3965769,10.41555 8.0713419,15.63367 2.674767,5.21813 5.331578,10.44404 7.963338,15.68122 h -0.221175 c -0.810235,-0.71248 -1.712842,-1.43815 -2.701127,-2.17455 -0.988286,-0.7364 -2.062252,-1.48329 -3.214791,-2.23862 -1.152425,-0.75525 -2.383744,-1.51904 -3.686597,-2.28823 -1.26e-4,-8e-5 -3.91e-4,7e-5 -5.17e-4,0 -0.651498,-0.38464 -1.3205863,-0.77089 -2.0071121,-1.15807 -0.7022805,-0.39607 -1.4234828,-0.79306 -2.1605918,-1.19114 -1.424916,-0.76955 -2.9111,-1.54171 -4.456058,-2.31511 -4.687567,-2.34656 -9.89694,-4.69987 -15.4419521,-6.99234 -7.393349,-3.05662 -15.383697,-6.00518 -23.528796,-8.68629 -4.072549,-1.34055 -8.183907,-2.6145 -12.278836,-3.80131 -4.09493,-1.18682 -8.173197,-2.28673 -12.180135,-3.27991 l 4.522204,3.56826 c 32.05538,7.94537 68.692801,22.72592 81.656513,34.12556 h 0.221175 c -5.263509,-10.47434 -10.62702,-20.90461 -16.0346795,-31.31488 -3.4774364,-3.11818 -7.1010964,-6.11801 -10.9383504,-9.05113 z" />
      <path
         id="path234"
         style="fill:url(#linearGradient7202);fill-opacity:1;stroke:url(#linearGradient7589);stroke-width:0.786664;stroke-opacity:1"
         inkscape:transform-center-x="-2e-06"
         inkscape:transform-center-y="-26.623623"
         d="m -84.094178,-337.687 c -7.98979,19.95142 -16.808672,39.48811 -26.125022,58.77626 7.75095,8.33041 17.007882,16.46728 28.218432,24.66982 -11.53631,-3.89198 -22.355382,-10.82289 -31.816662,-17.27699 -23.90972,48.70066 -50.76852,95.92689 -75.32047,144.30644 l -1.05781,1.2423 c 12.43685,-10.38147 52.20714,-30.97315 84.45789,-36.17505 -6.0845,-21.59996 1.04402,-52.40027 20.961512,-53.29184 26.937271,6.48391 24.319639,31.58367 23.960809,54.09902 32.05554,7.94542 68.6927361,22.72587 81.656512,34.12557 h 0.221175 c -5.263535,-10.47439 -10.626993,-20.90456 -16.0346789,-31.31489 -11.132961,-9.98282 -23.7621081,-18.75305 -40.1138301,-28.0019 11.495594,2.59162 21.903349,7.10566 31.4564781,11.4148 C -31.741878,-228.73104 -60.566503,-282.03193 -84.094178,-337.687 Z" />
      <path
         id="path7544"
         style="fill:url(#radialGradient7554);fill-opacity:1;stroke-width:0.743151"
         d="m -114.47359,-266.58553 c -14.55405,29.64451 -30.20079,58.7431 -45.75483,87.88766 a 52.274105,49.426773 0 0 0 21.65036,4.46949 52.274105,49.426773 0 0 0 30.99397,-9.66763 c 2.25611,-12.98132 8.697502,-24.10358 19.258262,-26.25007 a 52.274105,49.426773 0 0 0 2.0221,-13.50874 52.274105,49.426773 0 0 0 -14.569142,-34.23099 c -4.76727,-2.78523 -9.32823,-5.7852 -13.60072,-8.69972 z" />
    </g>
  </g>
</svg>
